<svg xmlns="http://www.w3.org/2000/svg" viewBox="-49.834778 -44.662476 674.6697128609152 664.324951171875"> <svg xmlns="http://www.w3.org/2000/svg" xmlns:xlink="http://www.w3.org/1999/xlink" viewBox="0.006597399711608887 0 117.33006286621094 115.05998992919922" height="524.324951171875" width="534.6697128609152" y="25.337524" x="20.165222" preserveAspectRatio="xMinYMin" style="overflow: visible;"><linearGradient id="ffffffffff_ffffffff_3" x1="19.05" y1="16.82" x2="75.96" y2="115.39" gradientUnits="userSpaceOnUse" style=""><stop offset="0" stop-color="#54bbcb"></stop><stop offset="1" stop-color="#0c7dbc"></stop></linearGradient><path id="ffff_1-2" dataName="ffff 1" class="cls-1" d="M107,53.58C99.78,42.81,92,31.37,82.34,20.15l-.78-.91C74.21,10.66,65.08,0,54.56,0h-.11c-8.6.06-18.16,2.51-32.14,31l0,0C22.16,31.33,9,59.57,1.78,82.56c-4.09,13-1,23.91,8.18,29.23,4.48,2.6,11,3.27,16.69,3.27a99.72,99.72,0,0,0,10.53-.63c22.41-2.33,37.4-5.86,57.22-11.57,11.73-3.37,19.06-8.82,21.76-16.19C120.24,75.52,112.86,62.44,107,53.58ZM112,85.16c-2.19,6-8.53,10.51-18.85,13.48-19.58,5.64-34.37,9.13-56.46,11.42-11.81,1.23-20.07.53-24.56-2.07C4.74,103.71,2.49,94.92,6,83.88c7.08-22.46,19.89-50.09,20.29-51C40.21,4.5,48.8,4.43,54.48,4.39h.08c8.5,0,16.91,9.81,23.66,17.7L79,23C88.47,34,96.2,45.36,103.3,56,108.68,64.08,115.43,75.88,112,85.16ZM83.89,59.74c-4-7.12-7.59-10.6-11.49-11.31a8.27,8.27,0,0,0-5.34.88c-2.45-7.46-4.62-13.8-5.88-16.3-.47-.93-2.27-4-5.63-4.55-1.55-.25-3.94,0-6.55,2.61-2.37,2.38-4.7,6.64-8.23,13.08l-1.3,2.37v0c-.08.16-8.63,16.15-12.85,25.1l-.42.88c-1.54,3.22-3,6.27-3,9.89a6.78,6.78,0,0,0,4.09,6.49c1.63.67,6.06,1.57,11.91-4.39,5-5.1,9.83-10.31,14.11-15C54.91,67.74,65.89,55,68.45,53.56a4.4,4.4,0,0,1,3.17-.81c2.4.44,5.25,3.52,8.45,9.16l.72,1.25c3.48,6.09,6.76,11.85,6.74,17.16,0,3.16-2.1,4.38-3.34,4.6-4.81.86-6.93-4.53-9.2-11.65-.33-1.06-.65-2.07-1-3-1.25-3.55-2.67-7.9-4.35-13a30.35,30.35,0,0,0-3.54,3.31c1.45,4.42,2.64,8,3.75,11.19.31.88.62,1.85.94,2.86,1.9,6,4.71,14.82,12.25,14.82a10.68,10.68,0,0,0,1.9-.18,8.7,8.7,0,0,0,7-8.9c0-6.49-3.7-13-7.32-19.36Zm-29.28,1.8c-5.23,5.77-11.74,12.95-18.54,19.89-3.26,3.33-5.82,3.94-7.12,3.41a2.46,2.46,0,0,1-1.36-2.43c0-2.63,1.19-5.12,2.56-8l.43-.9c4.13-8.76,12.49-24.41,12.75-24.89l1.29-2.36c3.23-5.89,5.56-10.15,7.49-12.08.71-.72,1.77-1.54,2.75-1.38a3.94,3.94,0,0,1,2.4,2.2c1.2,2.36,3.64,9.61,6.1,17.1C61.45,54,58.45,57.29,54.61,61.54Z" style="fill: url(#ffffffffff_ffffffff_3);"></path></svg></svg>